<?xml version="1.0" encoding="utf-8"?>
<!-- Generator: Adobe Illustrator 25.0.1, SVG Export Plug-In . SVG Version: 6.00 Build 0)  -->
<svg version="1.1" id="Layer_1" xmlns="http://www.w3.org/2000/svg" xmlns:xlink="http://www.w3.org/1999/xlink" x="0px" y="0px"
	 viewBox="0 0 119.3 92.9" style="enable-background:new 0 0 119.3 92.9;" xml:space="preserve">
<style type="text/css">
	.st0{opacity:0.3;fill:#534741;enable-background:new    ;}
	.st1{fill:#EFE8D8;}
	.st2{fill:#FFFFFF;}
	.st3{fill:#D63838;}
	.st4{fill:#962029;}
	.st5{fill:#B52631;}
	.st6{fill:#3F2B1C;}
	.st7{font-family:'InterstatePlus-Black';}
	.st8{font-size:24px;}
	.st9{letter-spacing:-1;}
</style>
<g id="Layer_2_1_">
	<g id="Layer_1-2">
		<rect x="18.4" y="26.9" class="st0" width="83" height="57"/>
		<rect x="12.4" y="82.9" class="st1" width="93" height="9"/>
		<path class="st2" d="M33.3,13.7c0,0,7.2,54.3,9.7,69c0.5,2.8,7.9,5.2,18.9,5.2c14.3-0.1,20.9-2,18.7-5.4
			C73.7,72.3,33.3,13.7,33.3,13.7z"/>
		<path class="st3" d="M60.3,8.1L11.6,31.3l4.7,7.8l0.2,0.3v47.4c0,0,7.5-1.3,11.1-3.6c2-1.2,2.3-10,0.8-15.2
			c-2-6.6-4.4-12.9-7.4-19.1c0,0,11.5-3.3,15-14.4c0.7-2.5,1.1-5.1,1.3-7.7c0,0,8.5,6.6,23.2,6.6c15,0,23.8-6.6,23.8-6.6
			c0.1,2.4,0.5,4.8,1.2,7.1C89,44.2,99,49,99,49s-5.8,12-7.6,19.1c-1.1,4.3-1.5,14.2,0.2,15.2c3.1,1.9,10.9,4.2,10.9,4.2V38.8
			l5.6-8.1L60.3,8.1z"/>
		<path class="st4" d="M60.3,3L4.6,29.8l5,8.6l2.9-1V89c0,0,5.9-2.2,11.7-4.9c2.4-1.1,0.3-11.1-1.4-16.9
			c-3.4-11.5-5.4-19.5-5.4-19.5C24,44.8,29,39,31,32c1.2-3.8,2.1-6.2,2.1-6.2s10.7-4.7,26.8-4.7c9.8,0,19.5,1.6,28.7,4.7
			c0,0,0.9,2.2,2.1,5.5c4,11.2,10.4,16.4,10.4,16.4s-1.9,11.6-3.9,19.4c-1.1,4.6-4.8,16.6-2.8,17.4c7.8,2.9,11.1,4.4,11.1,4.4V36.4
			l4,1.4l5.4-8.9L60.3,3z"/>
		<path class="st5" d="M60.9,20.6C31.7,20.6,14,33.5,14,33.5l2.4,6v48c0,0,5.9-2,9.9-3.8c2.8-1.2,1-11.5-0.5-16.8
			c-3.1-10.5-4.9-17.8-4.9-17.8c0.4-0.2,0.8-0.4,1.2-0.6c5.5-2.9,9.5-7.9,11.3-13.9c0.8-3.2,1.5-6.4,1.9-9.6c7.8,4,16.4,6,25.1,6
			c8.9,0.1,17.6-1.8,25.7-5.4c0.4,2.8,1,5.6,1.9,8.4c2.1,6.1,6.1,11.3,11.3,15.1c-3.4,10.5-3.4,10.5-5.3,17.8
			c-1.1,4.3-3.5,15.5-1.1,16.8c3.1,1.6,6.3,2.9,9.6,3.8V38.8l2.3-5.6C104.7,33.2,85.3,20.6,60.9,20.6z"/>
		<polygon class="st3" points="22.4,52 16.4,48.2 16.4,44.5 22.4,48.2 		"/>
		<polygon class="st3" points="39.2,32.2 36.6,26 38.7,22.8 41.3,29.1 		"/>
		<polygon class="st3" points="82.2,32.5 84.2,26.4 82,23.4 80,29.5 		"/>
		<polygon class="st3" points="97.4,52 102.4,48.2 102.4,44.5 97.4,48.2 		"/>
		<text transform="matrix(1 0 0 1 33.23 67.91)" class="st6 st7 st8 st9">Y</text>
		<text transform="matrix(1 0 0 1 49.22 67.91)" class="st6 st7 st8">A</text>
		<text transform="matrix(1 0 0 1 67.68 67.91)" class="st6 st7 st8">H</text>
		<polygon class="st6" points="60.3,0 0,29.1 1.7,32.2 61.2,4.1 		"/>
		<polygon class="st6" points="60.3,0 119.3,29.1 117.6,32.2 59.3,4 		"/>
		<rect x="12.4" y="88.9" class="st6" width="93" height="4"/>
	</g>
</g>
</svg>
